PathFileType	4	(X/Y/Z)	Patient4_TMGait_0pt5_01_left_08.trc.trc
DataRate	CameraRate	NumFrames	NumMarkers	Units	OrigDataRate	OrigDataStartFrame	OrigNumFrames
75.268817204301	75.268817204301	4	33	mm	75.268817204301	1	       141
Frame#	Time	L.ASIS			Sacral			L.Shoulder			Chest			R.Shoulder			Neck			R.ASIS			R.Thigh.Superior			R.Thigh.Lateral			R.Thigh.Inferior			R.Patella			L.Thigh.Superior			L.Thigh.Lateral			L.Thigh.Inferior			L.Patella			L.Shank.Superior			L.Shank.Lateral			L.Shank.Inferior			R.Shank.Superior			R.Shank.Lateral			R.Shank.Inferior			R.Heel			R.Midfoot.Superior			R.Midfoot.Lateral			R.Toe			L.Heel			L.Midfoot.Lateral			L.Midfoot.Superior			L.Toe			L.Elbow			L.Wrist			R.Elbow			R.Wrist			
		X1	Y1	Z1	X2	Y2	Z2	X3	Y3	Z3	X4	Y4	Z4	X5	Y5	Z5	X6	Y6	Z6	X7	Y7	Z7	X8	Y8	Z8	X9	Y9	Z9	X10	Y10	Z10	X11	Y11	Z11	X12	Y12	Z12	X13	Y13	Z13	X14	Y14	Z14	X15	Y15	Z15	X16	Y16	Z16	X17	Y17	Z17	X18	Y18	Z18	X19	Y19	Z19	X20	Y20	Z20	X21	Y21	Z21	X22	Y22	Z22	X23	Y23	Z23	X24	Y24	Z24	X25	Y25	Z25	X26	Y26	Z26	X27	Y27	Z27	X28	Y28	Z28	X29	Y29	Z29	X30	Y30	Z30	X31	Y31	Z31	X32	Y32	Z32	X33	Y33	Z33	

1	10.740000000000	718.971469323274	970.473787326404	359.869313040747	521.881798637570	1013.085093130902	537.052073231837	687.874928948801	1451.755735437719	368.017592937239	803.718349616595	1366.229966827934	512.093939542044	740.814295084379	1430.830798125312	698.454357757187	710.215754878255	1501.403598848062	520.109417447441	758.409622585573	945.613925630918	630.665445512191	790.082939902496	743.260699276499	599.157060869420	709.488961955884	636.498529119531	660.159394720172	781.432770054437	583.519935296236	575.828400323709	779.534280095886	494.486223212373	580.422571955997	799.265552936016	783.840775303531	373.667032798185	741.989987644424	658.143901469353	302.283496416541	850.906642555905	594.359514673530	347.767239031656	863.454617164545	506.116068980774	340.078110829633	804.057083185021	435.794741699011	341.093647254992	665.317855640177	375.001982846852	306.325753165719	675.230465559937	245.997091003095	362.682734066154	749.826512602515	407.240721163374	585.570046109050	677.194044303614	303.758684956439	644.838403399137	715.985828742714	209.900500996892	578.462353802100	574.400635478871	47.293874039065	548.154471944815	750.294666531192	98.157820557021	575.543034752563	662.469262596433	36.999223644200	616.545741336825	869.802556846945	39.201327115073	592.993189362878	497.318049777131	155.671978289488	417.739583233607	554.259230381510	119.472773515164	332.352769400549	658.727713632660	142.319604007082	344.386040575949	748.927901212899	42.721723098813	309.276098567983	587.179384538117	1121.427779186797	232.286608216210	708.917071526009	888.480473117001	221.101048454201	778.791553854452	1087.154237241248	811.936769354090	1006.207693987264	971.377261791393	779.826977993546	
2	10.753285714286	717.845808669974	970.843057643036	359.866971559823	521.045354370771	1013.311125470811	537.579952833419	687.003946728395	1452.261267384051	369.015574684598	803.290899946229	1366.218355692095	512.443649645168	741.183450423875	1430.384340883425	699.209386909310	709.900232463253	1501.488290015851	521.218653256538	757.841239871550	945.728985622130	630.591906863741	788.776139219641	743.311285073510	598.801717090565	708.266484431485	636.591381095209	660.385567366884	779.924708307293	583.430318972977	576.012916026555	777.728271816498	494.292883903853	580.847158537471	798.542499753948	784.769098513696	373.509084655701	741.689022229431	658.809974557024	301.961383090521	850.612737918212	595.394730033029	347.528477673107	863.942608486825	508.001767948174	339.495721925095	806.556843007639	436.908564311470	340.155277605176	669.906516890070	371.905071777384	305.381159434620	684.385386853644	243.046493178054	360.851776871019	747.593052439645	407.129487907445	585.924753082359	674.393784520510	303.957782701041	645.119657016135	712.868420047855	209.943636286517	578.759387880369	570.733318411573	47.680615895055	548.241150701472	746.698499267993	98.238509292467	575.763716877049	658.734012420668	37.096304430729	616.639816180010	866.055160051010	39.069665679299	593.048611529130	510.201242971868	146.288757355310	415.944558500853	567.778204733321	112.831759016016	330.021275501800	671.239953579962	139.223163426087	341.847468804607	764.555257728890	43.320463235496	305.528139580443	584.701930612592	1122.577275353204	232.937809395941	705.653524497728	889.239799671501	220.417356997382	781.736464871104	1086.771831814247	811.559670825131	1010.028882735359	973.497192019956	777.657713373429	
3	10.766571428571	716.512970054225	971.249478674671	359.813233675538	520.072672177940	1013.518784585686	538.149886911288	685.963570950449	1452.861781681280	370.202188849228	802.740347354091	1366.176855370522	512.868925618613	741.522654852416	1429.781145356868	700.111615316515	709.486164021701	1501.557365621625	522.554046707101	757.109784596065	945.825302607504	630.471842731381	787.240847511462	743.323180544680	598.436200517924	706.741087832920	636.650980147501	660.610531045992	778.107648389992	583.271278718727	576.233767760031	775.531022189665	494.011097763102	581.305362984303	797.495867484775	785.660025507503	373.313701094166	741.056730043684	659.449811217123	301.566442760251	849.878691738395	596.380735848155	347.387756583692	864.178726030283	510.134191644334	338.952110392214	809.373562463343	438.226288291375	339.098695125527	675.650766591460	368.032543561364	304.106958976641	695.785850401565	239.603646329442	358.556327382638	744.862674798030	406.944455636032	586.288870512028	670.973205685120	304.167538403963	645.403306039959	709.023781474481	209.953693062541	579.062834325574	566.172625461155	48.125481760602	548.337227421589	742.228410390329	98.324620213606	576.007066862451	654.099911456642	37.211427550741	616.740819185822	861.410921182807	38.917658055894	593.123259200187	526.551979557471	134.998912977787	413.416421275794	584.939013962089	104.998310485983	326.952875166476	686.940414561509	135.762994978084	338.702032583504	784.011439167574	44.631126654878	301.110645352666	581.713226404735	1124.021623541486	233.595051291180	701.669245297908	890.186674424880	219.604044593318	785.246685536006	1086.257050240602	811.006231289546	1014.534854397788	975.919495991505	774.962636536607	
4	10.779857142857	715.015054160304	971.655192603392	359.686255681414	518.992259130581	1013.673619250826	538.706627437851	684.787367692686	1453.512040306771	371.516123749354	802.064634616190	1366.083359527625	513.346025243996	741.772275905753	1429.011104003604	701.112227118502	708.967337316126	1501.580984207320	524.050911674834	756.215552030543	945.870005243058	630.290197386887	785.516076816117	743.263881957117	598.075945357774	704.919656158388	636.649087904231	660.793602734139	776.007034261347	583.019316611903	576.461472654290	772.972369765227	493.625350845667	581.741044747793	796.089747897195	786.399486399237	373.072374962448	740.003781704421	659.983330871956	301.096925167763	848.596602774256	597.197470481477	347.369395279808	864.027911622402	512.393210884662	338.510386822952	812.334748947589	439.708070784533	337.980218285945	682.432710383407	363.503912954275	302.494444882505	709.157624645731	235.878462209563	355.853152715296	741.682538414263	406.668319683384	586.611038179580	667.005684605001	304.363266801250	645.647876857697	704.525284454304	209.910989149795	579.330341693866	560.806753395103	48.596956926820	548.426665726320	736.964981166914	98.406917751338	576.247168654997	648.657996698288	37.337813891702	616.832805327127	855.960467755223	38.752996594507	593.210385576973	546.083470092792	122.284474740956	410.124772492456	605.450830170079	96.372133210287	323.186447329360	705.498366779699	132.206345423593	335.051710306344	806.828600418944	46.849722038181	296.266786938391	578.306981456217	1125.709578836850	234.192242648789	697.055837561738	891.273500980293	218.678488532646	789.161826474884	1085.600065746353	810.245846073873	1019.507303644358	978.496023565018	771.797186548257	
